<svg xmlns="http://www.w3.org/2000/svg" width="200" height="200" viewBox="0 0 200 200" fill="none">
<rect width="200" height="200" fill="#FEFFFE"/>
<path d="M 20.77,9 L 70.01,9.08 L 98.76,51.11 L 124.99,14.5 C 129.07,8.98 133.94,7.21 139.74,7.21 C 145.54,7.21 148.04,8.86 152.07,10.91 C 153.66,11.71 157.07,11.22 159.98,12.72 L 187.28,32.79 C 188.94,33.98 189.86,38.99 190.49,40.98 C 191.92,45.65 192.91,49.85 192.79,52.79 L 190.92,66.4 L 185.23,70.01 L 170.18,49.14 L 150.12,42.37 C 148.63,42.29 147.14,44.91 146.08,46.29 L 120.78,80.71 L 147.98,115.97 C 149.01,117.18 150.12,117.94 150.86,117.94 L 169.91,111.18 L 185.72,90.91 L 191.18,94.72 L 192.79,106.46 C 192.91,108.45 192.54,110.22 191.84,112.71 L 187.51,127.91 L 159.19,148.14 L 152.12,148.72 C 147.89,151.76 144.58,153.01 138.93,153.01 C 132.22,153.01 127.41,149.15 125.08,145.74 L 98.41,109.4 L 69.19,151.71 L 20.62,151.66 L 72.76,80.71 L 20.77,9 Z" fill="url(#paint0_linear_232_2033)"/>
<path d="M 121.33,31.1 L 98.38,63.22 L 98.38,65.99 L 123.01,34.61 C 125.84,39.71 129.04,43.39 137.49,44.61 L 111.91,80.41 L 137.72,115.06 L 136.08,115.75 L 110.08,80.76 L 135.71,44.8 C 130.22,44.32 123.31,40.35 121.33,31.1 Z" fill="url(#paint1_linear_232_2033)"/>
<path d="M 157.12,19.44 L 180.72,37.34 L 185.95,51.71 L 185.46,58.18 L 175.61,43.18 L 155.71,36.11 C 158.92,31.74 158.82,26.07 157.12,19.44 Z" fill="url(#paint2_linear_232_2033)"/>
<path d="M 157.12,21.79 L 179.73,38.84 L 185.11,53.11 L 185.46,58.18 L 176.12,40.79 L 156.22,34.16 C 157.81,31.1 158.28,27.61 157.12,21.79 Z" fill="url(#paint3_linear_232_2033)"/>
<path d="M 140.01,12.42 C 131.88,12.42 126.82,19.06 126.82,26.39 C 126.82,33.71 132.62,38.67 139.74,38.67 C 147.21,38.67 151.9,32.79 151.9,26.39 C 151.9,19.81 147.11,12.42 140.01,12.42 Z" fill="url(#paint4_linear_232_2033)"/>
<path d="M 139.69,15.96 C 133.33,15.96 129.38,21.21 129.38,27.04 C 129.38,32.86 134.07,36.77 139.71,36.77 C 145.71,36.77 149.46,31.98 149.46,26.81 C 149.46,21.52 145.56,15.96 139.69,15.96 Z" fill="url(#paint5_linear_232_2033)"/>
<path d="M 139.57,20.06 C 135.09,20.06 132.62,23.35 132.62,26.49 C 132.62,30.18 135.71,33.01 139.32,33.01 C 143.91,33.01 146.71,29.81 146.71,26.34 C 146.71,22.86 143.75,20.06 139.57,20.06 Z" fill="url(#paint6_linear_232_2033)"/>
<path d="M 139.61,23.13 C 136.91,23.13 136.08,25.02 136.08,26.71 C 136.08,28.73 137.72,29.98 139.52,29.98 C 141.96,29.98 143.38,28.31 143.38,26.59 C 143.38,24.77 141.81,23.13 139.61,23.13 Z" fill="url(#paint7_linear_232_2033)"/>
<path d="M 185.72,101.41 L 173.72,118.11 L 156.05,124.74 C 158.77,127.71 158.82,133.81 156.9,140.7 L 180.82,122.8 L 185.99,106.76 L 185.72,101.41 Z" fill="url(#paint8_linear_232_2033)"/>
<path d="M 184.84,104.32 L 175.61,120.36 L 157.93,126.81 C 158.72,128.65 158.97,130.24 158.92,133.07 L 179.24,120.01 L 184.84,104.32 Z" fill="url(#paint9_linear_232_2033)"/>
<path d="M 139.61,121.21 C 131.58,121.21 127.07,127.16 127.07,134.98 C 127.07,142.02 132.94,146.74 139.25,146.74 C 147.01,146.74 151.65,140.75 151.65,134.28 C 151.65,127.81 146.21,121.21 139.61,121.21 Z" fill="url(#paint10_linear_232_2033)"/>
<path d="M 139.69,124.47 C 133.21,124.47 129.61,129.24 129.61,135.23 C 129.61,140.75 134.12,144.51 139.35,144.51 C 145.66,144.51 149.31,139.69 149.31,134.51 C 149.31,129.31 145.28,124.47 139.69,124.47 Z" fill="url(#paint11_linear_232_2033)"/>
<path d="M 139.71,130.07 C 136.33,130.07 135.09,132.52 135.09,134.41 C 135.09,136.98 137.29,138.62 139.61,138.62 C 142.62,138.62 144.36,136.39 144.36,134.16 C 144.36,131.82 142.37,130.07 139.71,130.07 Z" fill="url(#paint12_linear_232_2033)"/>
<path d="M 98.38,68.06 L 126.19,35.94 C 127.16,37.91 130.02,41.92 136.23,43.42 L 108.06,80.61 L 127.04,118.41 L 121.19,129.12 L 98.38,92.49 V 68.06 Z" fill="url(#paint13_linear_232_2033)"/>
<path d="M 98.38,80.61 L 127.12,40.01 C 128.76,41.82 130.81,43.39 135.71,44.51 L 108.06,80.61 L 129.11,117.72 L 125.08,121.21 L 98.38,88.91 V 80.61 Z" fill="url(#paint14_linear_232_2033)"/>
<path d="M 20.77,166.44 H 29.31 L 22.21,175.31 L 20.77,166.44 Z" fill="#FEFFFE"/>
<path d="M 7.02,166.44 L 18.24,178.71 L 19.43,178.93 L 6,192.79 H 12.81 L 22.06,182.17 L 31.16,192.54 H 38.31 L 25.91,178.71 L 37.84,166.44 H 30.72 L 22.21,175.61 L 13.11,166.44 H 7.02 Z" fill="#041A4B"/>
<path d="M 38.16,177.62 V 182.02 H 52.06 L 52.28,181.68 L 52.31,177.62 H 38.16 Z" fill="#041A4B"/>
<path d="M 83.73,166.44 L 66.1,166.61 C 59.71,166.61 56.28,170.05 56.28,175.16 V 184.18 C 56.28,189.89 59.79,192.44 66.4,192.44 L 83.66,192.62 V 187.49 H 67.49 C 63.21,187.49 62.32,185.8 62.32,182.86 V 175.82 C 62.32,173.27 64.11,171.33 67.42,171.33 H 83.73 V 166.44 Z" fill="#041A4B"/>
<path d="M 88.12,166.44 V 183.21 C 88.12,189.84 90.49,192.54 97.1,192.54 H 112.86 V 187.49 H 98.01 C 94.26,187.49 93.47,185.8 93.47,182.86 L 93.59,166.44 H 88.12 Z" fill="#041A4B"/>
<path d="M 130.81,166.34 C 128.41,166.34 127.46,167.86 126.27,170.2 L 114.99,192.54 H 120.91 L 123.56,186.77 H 140.62 L 143.4,192.54 H 149.91 L 137.81,169.16 C 136.82,167.12 135.51,166.34 133.59,166.34 H 130.81 Z M 132.62,170.45 C 133.21,170.45 133.64,170.91 134.09,171.92 L 138.88,182.51 H 126.37 L 131.38,171.92 C 131.78,171.01 132.13,170.45 132.62,170.45 Z" fill="#041A4B"/>
<path d="M 147.11,166.61 L 154.62,189.81 C 155.31,192.05 156.65,192.79 158.72,192.79 H 161.11 C 163.26,192.79 164.18,191.75 164.95,189.08 L 170.18,172.61 C 170.43,171.82 170.63,171.67 170.93,171.67 C 171.25,171.67 171.47,171.92 171.72,172.71 L 177.26,189.72 C 177.91,191.85 178.82,192.79 180.69,192.79 H 182.81 C 185.21,192.79 186.12,191.65 186.91,188.93 L 193.73,166.39 H 187.98 L 182.01,185.9 C 181.72,186.84 181.62,187.04 181.27,187.04 C 180.92,187.04 180.77,186.79 180.48,185.8 L 175.29,169.21 C 174.55,166.91 173.41,166.39 171.57,166.39 H 169.13 C 166.91,166.39 166.07,167.33 165.23,170.05 L 159.78,186.05 C 159.51,186.84 159.39,187.04 159.11,187.04 C 158.72,187.04 158.62,186.74 158.37,185.75 L 152.93,166.39 L 147.11,166.61 Z" fill="#041A4B"/>
<path d="M 45.91,15.52 L 57.39,30.41 L 63.95,31.1 L 70.11,39.04 V 45.97 L 74.52,52.25 H 78.7 L 97.57,80.41 L 78.45,107.41 H 73.81 L 68.37,115.06 V 123.83 L 63.41,130.61 H 58.82 L 46.11,145 H 46.01 L 46.06,144.71 L 46.11,144.75 L 57.29,128.43 H 62.1 L 66.28,122.8 V 113.83 L 72.74,105.01 H 77.23 L 94.61,80.36 L 77.23,55.41 H 72.94 L 66.33,46.64 V 37.31 L 62.72,33.16 L 56.11,32.09 L 48.23,15.52 H 45.91 Z" fill="url(#paint15_linear_232_2033)"/>
<path d="M 43.57,27.98 L 51.69,39.11 L 52.23,40.31 L 57.98,40.16 L 58.72,41.23 V 47.81 L 81.01,80.16 L 58.37,112.22 V 121.04 L 56.98,121.83 L 52.14,121.31 L 43.32,133.91 H 47.12 L 53.43,123.88 L 59.02,123.59 L 60.96,122.22 V 112.66 L 84.15,80.31 L 61.01,46.64 V 38.82 L 59.17,37.21 H 53.63 L 47.02,27.98 H 43.57 Z" fill="url(#paint16_linear_232_2033)"/>
<path d="M 64.42,15.37 C 60.81,15.37 59.37,18.07 59.37,20.16 C 59.37,23.2 61.41,25.19 63.98,25.19 C 64.72,25.19 65.41,25.04 66.03,24.77 L 74.82,37.41 L 74.72,39.71 C 74.72,43.07 76.21,46.05 79.81,46.05 C 80.88,46.05 81.89,45.7 82.71,45.08 L 97.64,66.02 L 98.33,66.21 L 98.28,64.01 L 84.42,43.52 C 84.52,43.05 84.57,42.56 84.57,42.07 C 84.57,38.82 82.14,36.82 79.24,36.82 C 78.55,36.82 77.88,36.97 77.26,37.21 L 68.72,23.01 C 69.12,22.17 69.34,21.21 69.34,20.23 C 69.34,17.63 67.42,15.37 64.42,15.37 Z M 64.84,18.07 C 66.48,18.07 67.07,19.32 67.07,20.31 C 67.07,21.72 66.18,22.51 65.02,22.51 C 63.53,22.51 62.74,21.43 62.74,20.23 C 62.74,19.08 63.68,18.07 64.84,18.07 Z M 79.61,38.99 C 81.25,38.99 81.84,40.23 81.84,41.23 C 81.84,42.63 80.95,43.42 79.79,43.42 C 78.3,43.42 77.51,42.34 77.51,41.14 C 77.51,39.99 78.45,38.99 79.61,38.99 Z" fill="url(#paint17_linear_232_2033)"/>
<path d="M 98.38,92.49 L 83.06,116.02 C 82.07,114.98 81.08,114.59 79.44,114.59 C 75.98,114.59 74.42,117.08 74.42,119.63 C 74.42,120.81 74.72,121.92 75.31,122.85 L 65.91,135.62 C 65.51,135.52 65.09,135.47 64.67,135.47 C 61.21,135.47 59.32,138.12 59.32,140.41 C 59.32,143.34 61.36,145.08 63.93,145.08 C 67.02,145.08 68.99,142.74 68.99,139.96 C 68.99,138.71 68.62,137.53 67.93,136.56 L 77.33,124.27 C 77.91,124.47 78.53,124.57 79.17,124.57 C 82.26,124.57 83.93,122.12 83.93,119.58 C 83.93,119.23 83.88,118.89 83.83,118.55 L 98.38,97.71 V 92.49 Z M 79.29,116.91 C 80.93,116.91 81.52,118.16 81.52,119.16 C 81.52,120.57 80.63,121.36 79.47,121.36 C 77.98,121.36 77.19,120.27 77.19,119.07 C 77.19,117.92 78.13,116.91 79.29,116.91 Z M 64.52,138.12 C 66.16,138.12 66.75,139.37 66.75,140.36 C 66.75,141.77 65.86,142.56 64.7,142.56 C 63.21,142.56 62.42,141.47 62.42,140.28 C 62.42,139.12 63.36,138.12 64.52,138.12 Z" fill="url(#paint18_linear_232_2033)"/>
<defs>
<linearGradient id="paint0_linear_232_2033" x1="20.6201" y1="80.1082" x2="192.811" y2="80.1082" gradientUnits="userSpaceOnUse">
<stop stop-color="#040D44"/>
<stop offset="0.510417" stop-color="#0A4A7A"/>
<stop offset="1" stop-color="#042A54"/>
</linearGradient>
<linearGradient id="paint1_linear_232_2033" x1="104.436" y1="31.0967" x2="104.436" y2="129.121" gradientUnits="userSpaceOnUse">
<stop stop-color="#00F9E9"/>
<stop offset="0.489583" stop-color="#00F1F6"/>
<stop offset="1" stop-color="#2490CC"/>
</linearGradient>
<linearGradient id="paint2_linear_232_2033" x1="170.956" y1="19.4375" x2="170.956" y2="58.1768" gradientUnits="userSpaceOnUse">
<stop stop-color="#00F9E9"/>
<stop offset="0.489583" stop-color="#00F1F6"/>
<stop offset="1" stop-color="#2490CC"/>
</linearGradient>
<linearGradient id="paint3_linear_232_2033" x1="170.832" y1="21.7852" x2="170.832" y2="58.1768" gradientUnits="userSpaceOnUse">
<stop stop-color="#2490CC"/>
<stop offset="0.489583" stop-color="#00F1F6"/>
<stop offset="1" stop-color="#00F9E9"/>
</linearGradient>
<linearGradient id="paint4_linear_232_2033" x1="139.359" y1="12.416" x2="139.359" y2="38.6701" gradientUnits="userSpaceOnUse">
<stop stop-color="#24FFEA"/>
<stop offset="1" stop-color="#39C6DF"/>
</linearGradient>
<linearGradient id="paint5_linear_232_2033" x1="139.42" y1="15.957" x2="139.42" y2="36.7661" gradientUnits="userSpaceOnUse">
<stop stop-color="#24FFEA"/>
<stop offset="1" stop-color="#39C6DF"/>
</linearGradient>
<linearGradient id="paint6_linear_232_2033" x1="139.664" y1="20.0566" x2="139.664" y2="33.0142" gradientUnits="userSpaceOnUse">
<stop stop-color="#042A54"/>
<stop offset="1" stop-color="#0A4A7A"/>
</linearGradient>
<linearGradient id="paint7_linear_232_2033" x1="139.731" y1="23.126" x2="139.731" y2="29.9766" gradientUnits="userSpaceOnUse">
<stop stop-color="#B5F7F0"/>
<stop offset="1" stop-color="#88E1E3"/>
</linearGradient>
<linearGradient id="paint8_linear_232_2033" x1="170.881" y1="101.406" x2="170.881" y2="140.703" gradientUnits="userSpaceOnUse">
<stop stop-color="#00F9E9"/>
<stop offset="0.489583" stop-color="#00F1F6"/>
<stop offset="1" stop-color="#2490CC"/>
</linearGradient>
<linearGradient id="paint9_linear_232_2033" x1="171.382" y1="104.322" x2="171.382" y2="133.068" gradientUnits="userSpaceOnUse">
<stop stop-color="#2490CC"/>
<stop offset="0.489583" stop-color="#00F1F6"/>
<stop offset="1" stop-color="#00F9E9"/>
</linearGradient>
<linearGradient id="paint10_linear_232_2033" x1="139.359" y1="121.207" x2="139.359" y2="146.736" gradientUnits="userSpaceOnUse">
<stop stop-color="#24FFEA"/>
<stop offset="1" stop-color="#39C6DF"/>
</linearGradient>
<linearGradient id="paint11_linear_232_2033" x1="139.461" y1="124.469" x2="139.461" y2="144.506" gradientUnits="userSpaceOnUse">
<stop stop-color="#042A54"/>
<stop offset="0.520833" stop-color="#2466B7"/>
<stop offset="1" stop-color="#3996DF"/>
</linearGradient>
<linearGradient id="paint12_linear_232_2033" x1="139.726" y1="130.072" x2="139.726" y2="138.617" gradientUnits="userSpaceOnUse">
<stop stop-color="#24FFEA"/>
<stop offset="1" stop-color="#39C6DF"/>
</linearGradient>
<linearGradient id="paint13_linear_232_2033" x1="117.276" y1="35.9375" x2="117.276" y2="129.121" gradientUnits="userSpaceOnUse">
<stop stop-color="#00F9E9"/>
<stop offset="0.489583" stop-color="#00F1F6"/>
<stop offset="1" stop-color="#2490CC"/>
</linearGradient>
<linearGradient id="paint14_linear_232_2033" x1="113.743" y1="40.0117" x2="113.743" y2="121.207" gradientUnits="userSpaceOnUse">
<stop stop-color="#042A54"/>
<stop offset="0.520833" stop-color="#2466B7"/>
<stop offset="1" stop-color="#3996DF"/>
</linearGradient>
<linearGradient id="paint15_linear_232_2033" x1="61.7686" y1="15.5215" x2="61.7686" y2="145" gradientUnits="userSpaceOnUse">
<stop stop-color="#00F9E9"/>
<stop offset="0.489583" stop-color="#00F1F6"/>
<stop offset="1" stop-color="#2490CC"/>
</linearGradient>
<linearGradient id="paint16_linear_232_2033" x1="63.8466" y1="27.9805" x2="63.8466" y2="133.906" gradientUnits="userSpaceOnUse">
<stop stop-color="#00F9E9"/>
<stop offset="0.489583" stop-color="#00F1F6"/>
<stop offset="1" stop-color="#2490CC"/>
</linearGradient>
<linearGradient id="paint17_linear_232_2033" x1="73.8507" y1="15.3711" x2="73.8507" y2="66.2109" gradientUnits="userSpaceOnUse">
<stop stop-color="#00F9E9"/>
<stop offset="0.489583" stop-color="#00F1F6"/>
<stop offset="1" stop-color="#2490CC"/>
</linearGradient>
<linearGradient id="paint18_linear_232_2033" x1="78.8493" y1="92.4883" x2="78.8493" y2="145.078" gradientUnits="userSpaceOnUse">
<stop stop-color="#00F9E9"/>
<stop offset="0.489583" stop-color="#00F1F6"/>
<stop offset="1" stop-color="#2490CC"/>
</linearGradient>
</defs>
</svg>